<svg xmlns="http://www.w3.org/2000/svg" viewBox="0 0 628.229 296.14"><defs><style>.cls-1{fill:#7eb6ba;}.cls-2{fill:#9ed4d6;}.cls-3{fill:#579a9d;}.cls-4{fill:#3f8487;}.cls-5{fill:#1b3359;}</style></defs><g id="Layer_2" data-name="Layer 2"><g id="Layer_1-2" data-name="Layer 1"><path class="cls-1" d="M574.593,123.79c.141,200.453-286.607,240.418-293.2,43.225-.012-.36.269-.49,0-.736.7-14.445,2.708-29.083,7.58-42.845,5.015.522,9.994,1.383,15.01,1.912,2.884.628,1.6-1.135,2.989-1.912-61.4,203.667,245.538,195.191,204.148,6.426h0l.164-.153c-.053.049-.111.1-.164.149C487.064,56.328,374.66,58.516,336.334,117.53c-.508.782-.6.788-1.488.435a91.379,91.379,0,0,0-21.027-6.3c-2.139-.493-2.129,4.664-3.912,5.134A169.917,169.917,0,0,1,357,55.181c.8-.042.8-.042.919-.735,32.244-26.417,76.141-36.219,116.992-29.99.272.45.691.233,1.1.184.015.3.165.4.456.322,1-.322,2.037.114,3.031.237C529.481,33.023,574.1,70.141,574.593,123.79Z"/><path class="cls-2" d="M457.057,0c.774,7.623,1.838,15.214,2.719,22.825-69.642-3.958-126.752,37.144-152.8,100.607-1.389.786-.107,2.541-2.991,1.913-5.017-.529-9.993-1.388-15.008-1.913C312.836,50.985,385.056,10.664,457.057,0Z"/><path class="cls-3" d="M517,167.467c-2.245,83.207-101.241,135.772-172.142,93.9-.035-.529-.043-.533-.376-.345-33.706-21.6-46.374-55.246-46.95-89.336A119.113,119.113,0,0,1,309.907,116.8c1.779-.468,1.778-5.629,3.912-5.135a87.125,87.125,0,0,1,15.673,4.173c1.8.663,3.568,1.418,5.354,2.127.889.353.938.318,1.486-.437,1.429-1.491,2.3-4.085,4.108-4.958-26.055,33.469-32.62,90.812-3.119,124.066,20.322,22.4,54.711,28.076,82.531,17.9,39.054-15.167,45.457-55.238,34.63-91.72,20.3-.564,40.823-.567,61.212-.77,1.429.185.515-1.019,1.319-1.288C517.013,163,517.059,165.233,517,167.467Z"/><path class="cls-4" d="M377.964,82.585c17.045-8,36.2-11.5,54.922-8.993,21.545,2.337,43.32,9.628,59.067,25.044,9.032,8.8,16.726,19.83,19.365,32.3,2.132,9.868,5.377,19.689,5.694,29.823-.822.292.139,1.461-1.317,1.289-20.393.2-40.906.209-61.214.77,10.8,36.567,4.487,76.466-34.631,91.719-24.94,9.044-55.1,5.643-75.805-11.531-22.908-18.661-29.066-50.78-24.77-78.828C323.277,129.2,344.853,96.108,377.964,82.585Z"/><path class="cls-5" d="M0,228.1V115.056L21.5,102.4l5.2,20.32c5.906-10.632,17.248-19.611,34.024-19.611,11.342,0,22.21.945,29.3,7.8L85.77,142.8c-10.634-6.143-17.013-7.561-22.92-7.561-16.067,0-30.244,11.578-30.244,26.228V228.1Z"/><path class="cls-5" d="M171.535,101.452c36.387,0,65.213,28.354,65.213,64.269,0,36.387-28.826,64.5-65.213,64.5-36.86,0-64.5-28.117-64.5-64.5C107.031,129.806,134.675,101.452,171.535,101.452Zm0,97.111c17.485,0,32.843-15.122,32.843-32.842,0-17.249-15.358-32.371-32.843-32.371S139.4,148.472,139.4,165.721C139.4,183.441,154.051,198.563,171.535,198.563Z"/><path class="cls-5" d="M258.143,119.989l6.714-15.938h6.617V82.077l34.643-20.388-.147,42.362h42.766l-3.78,26.937H305.97v43.475c0,17.485,8.27,25.518,16.067,25.518,8.506,0,12.759-2.6,19.612-11.1l17.484,29.063c-8.5,8.506-22.683,12.286-33.552,12.286-32.606,0-54.107-17.72-54.107-56V127.679Z"/><path class="cls-5" d="M438.283,101.452c36.387,0,65.213,28.354,65.213,64.269,0,36.387-28.826,64.5-65.213,64.5-36.861,0-64.5-28.117-64.5-64.5C373.778,129.806,401.422,101.452,438.283,101.452Zm0,97.111c17.484,0,32.842-15.122,32.842-32.842,0-17.249-15.358-32.371-32.842-32.371s-32.135,15.122-32.135,32.371C406.148,183.441,420.8,198.563,438.283,198.563Z"/><path class="cls-5" d="M538.207,227.81V114.767l21.5-12.659,5.2,20.32c5.907-10.632,17.249-19.611,34.025-19.611,11.341,0,22.209.945,29.3,7.8l-4.253,31.9c-10.633-6.143-17.012-7.561-22.919-7.561-16.068,0-30.244,11.577-30.244,26.227V227.81Z"/></g></g></svg>